<svg width="38" height="50" viewBox="0 0 38 50" fill="none" xmlns="http://www.w3.org/2000/svg">
<path d="M35.3333 21.4393L32.3279 16.1354V21.0833C32.5471 25.5091 31.6667 26.4247 30.25 27.5833C30.8632 23.0326 30.7612 15.8613 25.8497 8.66667C22.779 4.17005 17.6231 1.49361 11.4608 0.563059L7.7376 0L10.4255 2.63849C13.6327 5.7866 15.2638 9.11866 15.2734 12.5448C15.2781 14.5214 14.7382 16.2889 14.0679 17.7207C13.9078 15.2208 13.0153 12.4008 10.1476 10.8511L8.21042 9.8051L8.3497 12.0007C8.66631 17.0052 6.52919 20.0593 4.26502 23.2936C1.97893 26.559 -0.383937 29.9346 0.0524803 35.2082C0.797244 44.2109 6.32791 49.1784 16.4915 49.9725C16.7268 49.9916 16.972 50 17.222 50C22.4301 50 30.2765 46.0529 34.3939 39.4446C36.787 35.6095 39.2244 29.3691 35.3333 21.4393ZM17.2231 47.5627C17.1672 47.5627 17.116 47.5579 17.0624 47.5567C17.2231 47.5531 17.3684 47.5507 17.506 47.5495C17.413 47.5519 17.3148 47.5627 17.2231 47.5627ZM31.1667 37.5833C27.8435 42.9151 24.3472 45.2963 19.9167 45.8333C24.7198 44.3343 26.314 27.3404 16.4915 24.4167C19.0824 28.9133 14.1566 31.5589 10.7316 33.5986C7.30669 35.6382 5.26942 39.1136 6.66667 43.5C6.71785 43.6607 6.34825 43.1037 6.41667 43.25C4.26502 40.9167 4.18818 39.2078 3.83333 34.9167C3.4684 30.5208 5.0051 28.71 7.13518 25.6667C9.03665 22.9513 10.2755 21.2876 10.7316 17C12.4414 19.8576 11.2388 21.9686 11.2234 22.0233L9.99401 26.4247L13.6667 23.6667C13.8483 23.4875 19.5011 19.7773 19.5 13.5833C19.4988 10.5399 16.6832 6.58745 14.6519 3.79295C18.3793 4.98423 20.2746 8.15661 22.3333 11.1667C28.2356 19.7991 26.3522 32.0388 26.3224 32.1745L25.8497 34.2677L27.8906 33.5986C27.9489 33.5795 32.4283 32.3711 34.25 27.4167C35.2309 32.1755 32.7527 35.0364 31.1667 37.5833Z" fill="#FF4D00"/>
</svg>
