<svg width="22" height="20" viewBox="0 0 22 20" fill="none" xmlns="http://www.w3.org/2000/svg">
<path d="M20.107 3.1671L17.3081 0.507437C16.9665 0.182477 16.5092 0 16.0256 0C15.5421 0 15.0848 0.179978 14.7432 0.507437L11.7288 3.36958C11.3872 3.69454 11.1954 4.13198 11.1954 4.59193C11.1954 5.05437 11.3846 5.48681 11.7288 5.81427L14.0835 8.05649C13.5471 9.24531 12.7764 10.3255 11.8129 11.2386C10.8485 12.161 9.72103 12.8884 8.4701 13.4033L6.11539 11.1611C5.77375 10.8361 5.31648 10.6537 4.83292 10.6537C4.59441 10.6528 4.35812 10.6973 4.13791 10.7844C3.91769 10.8715 3.71797 10.9996 3.55045 11.1611L0.533487 14.0232C0.191845 14.3482 0 14.7857 0 15.2456C0 15.708 0.189217 16.1405 0.533487 16.4679L3.3297 19.1276C3.91312 19.6825 4.71729 20 5.54249 20C5.71331 20 5.87887 19.9875 6.04707 19.96C9.52656 19.4151 12.9798 17.6528 15.7681 15.0031C18.5538 12.3485 20.4039 9.06387 20.9821 5.75178C21.1476 4.8119 20.8165 3.84452 20.107 3.1671ZM19.1188 5.45432C18.6064 8.40145 16.9402 11.3411 14.4304 13.7283C11.9207 16.1155 8.83276 17.7003 5.73433 18.1877C5.34539 18.2502 4.94593 18.1252 4.6621 17.8578L1.91582 15.2456L4.82767 12.4734L7.97603 15.4731L7.99968 15.4956L8.56733 15.2956C10.2885 14.6937 11.8515 13.743 13.1479 12.5094C14.4444 11.2758 15.4434 9.78881 16.0756 8.15148L16.2858 7.61155L13.1112 4.59443L16.023 1.82227L18.7693 4.43445C19.0531 4.70441 19.1845 5.08436 19.1188 5.45432Z" fill="white"/>
</svg>
